<svg width="148" height="37" viewBox="0 0 148 37" fill="none" xmlns="http://www.w3.org/2000/svg">
<path d="M9.935 29.42C7.95167 29.42 6.225 29.0117 4.755 28.195C3.30833 27.355 2.18833 26.1883 1.395 24.695C0.601667 23.1783 0.205 21.405 0.205 19.375C0.205 17.2983 0.613333 15.5133 1.43 14.02C2.24667 12.5033 3.39 11.3483 4.86 10.555C6.33 9.73833 8.045 9.33 10.005 9.33C11.5683 9.33 12.9683 9.62167 14.205 10.205C15.465 10.765 16.48 11.57 17.25 12.62C18.0433 13.67 18.4983 14.9183 18.615 16.365H15.08C14.8933 15.0583 14.3333 14.055 13.4 13.355C12.49 12.6317 11.3583 12.27 10.005 12.27C8.745 12.27 7.64833 12.5617 6.715 13.145C5.78167 13.705 5.05833 14.51 4.545 15.56C4.03167 16.61 3.775 17.8817 3.775 19.375C3.775 21.5917 4.335 23.33 5.455 24.59C6.59833 25.85 8.09167 26.48 9.935 26.48C10.775 26.48 11.5567 26.3167 12.28 25.99C13.0033 25.6633 13.6217 25.1967 14.135 24.59C14.6483 23.96 14.9983 23.2367 15.185 22.42H18.755C18.5217 23.8667 17.985 25.115 17.145 26.165C16.3283 27.1917 15.29 27.9967 14.03 28.58C12.7933 29.14 11.4283 29.42 9.935 29.42ZM32.1037 29.42C30.1203 29.42 28.4053 29.0117 26.9587 28.195C25.5353 27.3783 24.4387 26.2233 23.6687 24.73C22.8987 23.2133 22.5137 21.4283 22.5137 19.375C22.5137 17.275 22.8987 15.49 23.6687 14.02C24.4387 12.5267 25.5353 11.3717 26.9587 10.555C28.4053 9.73833 30.132 9.33 32.1387 9.33C35.1253 9.33 37.4703 10.2283 39.1737 12.025C40.877 13.7983 41.7287 16.2483 41.7287 19.375C41.7287 21.4283 41.3437 23.2133 40.5737 24.73C39.8037 26.2233 38.6953 27.3783 37.2487 28.195C35.8253 29.0117 34.1103 29.42 32.1037 29.42ZM32.1387 26.48C34.0053 26.48 35.4753 25.85 36.5487 24.59C37.6453 23.3067 38.1937 21.5683 38.1937 19.375C38.1937 17.1583 37.6453 15.42 36.5487 14.16C35.4753 12.9 34.0053 12.27 32.1387 12.27C30.2487 12.27 28.767 12.9 27.6937 14.16C26.6203 15.42 26.0837 17.1583 26.0837 19.375C26.0837 21.5683 26.6203 23.3067 27.6937 24.59C28.767 25.85 30.2487 26.48 32.1387 26.48ZM53.8873 9.33C55.2173 9.33 56.4307 9.59833 57.5273 10.135C58.624 10.6483 59.5107 11.3717 60.1873 12.305V3.275H63.6873V29H60.3623L60.2573 26.305C59.5807 27.2383 58.6823 27.9967 57.5623 28.58C56.4657 29.14 55.2407 29.42 53.8873 29.42C52.184 29.42 50.679 28.9883 49.3723 28.125C48.0657 27.2617 47.039 26.0717 46.2923 24.555C45.569 23.0383 45.2073 21.3117 45.2073 19.375C45.2073 17.415 45.569 15.6767 46.2923 14.16C47.039 12.6433 48.0657 11.465 49.3723 10.625C50.679 9.76167 52.184 9.33 53.8873 9.33ZM54.6573 26.445C55.9173 26.445 57.0373 26.095 58.0173 25.395C58.9973 24.6717 59.7207 23.7033 60.1873 22.49V16.225C59.7207 14.9883 58.9973 14.0317 58.0173 13.355C57.0373 12.655 55.9173 12.305 54.6573 12.305C53.4907 12.305 52.464 12.6083 51.5773 13.215C50.6907 13.7983 49.9907 14.6267 49.4773 15.7C48.9873 16.75 48.7423 17.975 48.7423 19.375C48.7423 20.7517 48.9873 21.9767 49.4773 23.05C49.9907 24.1 50.6907 24.9283 51.5773 25.535C52.464 26.1417 53.4907 26.445 54.6573 26.445ZM77.876 29.42C75.8927 29.42 74.1777 29.0233 72.731 28.23C71.2843 27.4133 70.176 26.2583 69.406 24.765C68.636 23.2483 68.251 21.44 68.251 19.34C68.251 17.24 68.636 15.4433 69.406 13.95C70.1993 12.4567 71.3193 11.3133 72.766 10.52C74.236 9.72667 75.986 9.33 78.016 9.33C81.1193 9.33 83.4294 10.1933 84.946 11.92C86.4627 13.6233 87.1277 15.9683 86.941 18.955H71.051L71.086 16.295L83.336 16.33C83.2427 15.0933 82.706 14.1017 81.726 13.355C80.746 12.6083 79.5093 12.235 78.016 12.235C76.0093 12.235 74.4693 12.865 73.396 14.125C72.3227 15.385 71.786 17.17 71.786 19.48C71.786 20.8567 72.0193 22.0817 72.486 23.155C72.976 24.205 73.676 25.0217 74.586 25.605C75.496 26.1883 76.5927 26.48 77.876 26.48C79.3927 26.48 80.6527 26.1183 81.656 25.395C82.6827 24.6717 83.3127 23.6917 83.546 22.455H87.081C86.7777 24.625 85.8094 26.3283 84.176 27.565C82.5427 28.8017 80.4427 29.42 77.876 29.42Z" fill="white"/>
<path d="M90.9688 29C90.2917 29 90.1159 28.5703 90.4414 27.7109L100.168 2.18359C100.467 1.38932 100.897 0.992188 101.457 0.992188H104.191C104.751 0.992188 105.181 1.38932 105.48 2.18359L115.207 27.7109C115.533 28.5703 115.357 29 114.68 29H112.688C111.997 29 111.529 28.681 111.281 28.043L108.84 21.5781H96.8086L94.3672 28.043C94.1198 28.681 93.651 29 92.9609 29H90.9688ZM98.0391 18.375H107.609L104.621 10.5625C104.348 9.83333 104.074 9.02604 103.801 8.14062C103.54 7.25521 103.228 5.9987 102.863 4.37109H102.785C102.421 5.9987 102.102 7.25521 101.828 8.14062C101.568 9.02604 101.301 9.83333 101.027 10.5625L98.0391 18.375ZM119.914 29C119.263 29 118.938 28.6419 118.938 27.9258V2.06641C118.938 1.35026 119.263 0.992188 119.914 0.992188H121.711C122.362 0.992188 122.688 1.35026 122.688 2.06641V27.9258C122.688 28.6419 122.362 29 121.711 29H119.914ZM126.418 36.6172C125.832 36.6172 125.539 36.3893 125.539 35.9336V34.7617C125.539 34.306 125.832 34.0781 126.418 34.0781H147.082C147.668 34.0781 147.961 34.306 147.961 34.7617V35.9336C147.961 36.3893 147.668 36.6172 147.082 36.6172H126.418Z" fill="#E6721E"/>
</svg>
