<svg width="455" height="568" viewBox="0 0 455 568" fill="none" xmlns="http://www.w3.org/2000/svg">
<circle cx="16" cy="16" r="16" fill="#2B2929"/>
<circle cx="16" cy="16" r="16" fill="#2B2929"/>
<circle cx="70" cy="16" r="16" fill="#2B2929"/>
<circle cx="70" cy="16" r="16" fill="#2B2929"/>
<circle cx="124" cy="16" r="16" fill="#2B2929"/>
<circle cx="124" cy="16" r="16" fill="#2B2929"/>
<circle cx="187" cy="16" r="16" fill="#2B2929"/>
<circle cx="187" cy="16" r="16" fill="#2B2929"/>
<circle cx="250" cy="16" r="16" fill="#2B2929"/>
<circle cx="250" cy="16" r="16" fill="#2B2929"/>
<circle cx="313" cy="16" r="16" fill="#2B2929"/>
<circle cx="313" cy="16" r="16" fill="#2B2929"/>
<circle cx="376" cy="16" r="16" fill="#2B2929"/>
<circle cx="376" cy="16" r="16" fill="#2B2929"/>
<circle cx="439" cy="16" r="16" fill="#2B2929"/>
<circle cx="439" cy="16" r="16" fill="#2B2929"/>
<circle cx="16" cy="83" r="16" fill="#2B2929"/>
<circle cx="16" cy="83" r="16" fill="#2B2929"/>
<circle cx="70" cy="83" r="16" fill="#2B2929"/>
<circle cx="70" cy="83" r="16" fill="#2B2929"/>
<circle cx="124" cy="83" r="16" fill="#2B2929"/>
<circle cx="124" cy="83" r="16" fill="#2B2929"/>
<circle cx="187" cy="83" r="16" fill="#2B2929"/>
<circle cx="187" cy="83" r="16" fill="#2B2929"/>
<circle cx="250" cy="83" r="16" fill="#2B2929"/>
<circle cx="250" cy="83" r="16" fill="#2B2929"/>
<circle cx="313" cy="83" r="16" fill="#2B2929"/>
<circle cx="313" cy="83" r="16" fill="#2B2929"/>
<circle cx="376" cy="83" r="16" fill="#2B2929"/>
<circle cx="376" cy="83" r="16" fill="#2B2929"/>
<circle cx="439" cy="83" r="16" fill="#2B2929"/>
<circle cx="439" cy="83" r="16" fill="#2B2929"/>
<circle cx="16" cy="150" r="16" fill="#2B2929"/>
<circle cx="16" cy="150" r="16" fill="#2B2929"/>
<circle cx="70" cy="150" r="16" fill="#2B2929"/>
<circle cx="70" cy="150" r="16" fill="#2B2929"/>
<circle cx="124" cy="150" r="16" fill="#2B2929"/>
<circle cx="124" cy="150" r="16" fill="#2B2929"/>
<circle cx="187" cy="150" r="16" fill="#2B2929"/>
<circle cx="187" cy="150" r="16" fill="#2B2929"/>
<circle cx="250" cy="150" r="16" fill="#2B2929"/>
<circle cx="250" cy="150" r="16" fill="#2B2929"/>
<circle cx="313" cy="150" r="16" fill="#2B2929"/>
<circle cx="313" cy="150" r="16" fill="#2B2929"/>
<circle cx="376" cy="150" r="16" fill="#2B2929"/>
<circle cx="376" cy="150" r="16" fill="#2B2929"/>
<circle cx="439" cy="150" r="16" fill="#2B2929"/>
<circle cx="439" cy="150" r="16" fill="#2B2929"/>
<circle cx="16" cy="217" r="16" fill="#2B2929"/>
<circle cx="16" cy="217" r="16" fill="#2B2929"/>
<circle cx="70" cy="217" r="16" fill="#2B2929"/>
<circle cx="70" cy="217" r="16" fill="#2B2929"/>
<circle cx="124" cy="217" r="16" fill="#2B2929"/>
<circle cx="124" cy="217" r="16" fill="#2B2929"/>
<circle cx="187" cy="217" r="16" fill="#2B2929"/>
<circle cx="187" cy="217" r="16" fill="#2B2929"/>
<circle cx="250" cy="217" r="16" fill="#2B2929"/>
<circle cx="250" cy="217" r="16" fill="#2B2929"/>
<circle cx="313" cy="217" r="16" fill="#2B2929"/>
<circle cx="313" cy="217" r="16" fill="#2B2929"/>
<circle cx="376" cy="217" r="16" fill="#2B2929"/>
<circle cx="376" cy="217" r="16" fill="#2B2929"/>
<circle cx="439" cy="217" r="16" fill="#2B2929"/>
<circle cx="439" cy="217" r="16" fill="#2B2929"/>
<circle cx="16" cy="284" r="16" fill="#2B2929"/>
<circle cx="16" cy="284" r="16" fill="#2B2929"/>
<circle cx="70" cy="284" r="16" fill="#2B2929"/>
<circle cx="70" cy="284" r="16" fill="#2B2929"/>
<circle cx="124" cy="284" r="16" fill="#2B2929"/>
<circle cx="124" cy="284" r="16" fill="#2B2929"/>
<circle cx="187" cy="284" r="16" fill="#2B2929"/>
<circle cx="187" cy="284" r="16" fill="#2B2929"/>
<circle cx="250" cy="284" r="16" fill="#2B2929"/>
<circle cx="250" cy="284" r="16" fill="#2B2929"/>
<circle cx="313" cy="284" r="16" fill="#2B2929"/>
<circle cx="313" cy="284" r="16" fill="#2B2929"/>
<circle cx="376" cy="284" r="16" fill="#2B2929"/>
<circle cx="376" cy="284" r="16" fill="#2B2929"/>
<circle cx="439" cy="284" r="16" fill="#2B2929"/>
<circle cx="439" cy="284" r="16" fill="#2B2929"/>
<circle cx="16" cy="351" r="16" fill="#2B2929"/>
<circle cx="16" cy="351" r="16" fill="#2B2929"/>
<circle cx="70" cy="351" r="16" fill="#2B2929"/>
<circle cx="70" cy="351" r="16" fill="#2B2929"/>
<circle cx="124" cy="351" r="16" fill="#2B2929"/>
<circle cx="124" cy="351" r="16" fill="#2B2929"/>
<circle cx="187" cy="351" r="16" fill="#2B2929"/>
<circle cx="187" cy="351" r="16" fill="#2B2929"/>
<circle cx="250" cy="351" r="16" fill="#2B2929"/>
<circle cx="250" cy="351" r="16" fill="#2B2929"/>
<circle cx="313" cy="351" r="16" fill="#2B2929"/>
<circle cx="313" cy="351" r="16" fill="#2B2929"/>
<circle cx="376" cy="351" r="16" fill="#2B2929"/>
<circle cx="376" cy="351" r="16" fill="#2B2929"/>
<circle cx="439" cy="351" r="16" fill="#2B2929"/>
<circle cx="439" cy="351" r="16" fill="#2B2929"/>
<circle cx="16" cy="418" r="16" fill="#2B2929"/>
<circle cx="16" cy="418" r="16" fill="#2B2929"/>
<circle cx="70" cy="418" r="16" fill="#2B2929"/>
<circle cx="70" cy="418" r="16" fill="#2B2929"/>
<circle cx="124" cy="418" r="16" fill="#2B2929"/>
<circle cx="124" cy="418" r="16" fill="#2B2929"/>
<circle cx="187" cy="418" r="16" fill="#2B2929"/>
<circle cx="187" cy="418" r="16" fill="#2B2929"/>
<circle cx="250" cy="418" r="16" fill="#2B2929"/>
<circle cx="250" cy="418" r="16" fill="#2B2929"/>
<circle cx="313" cy="418" r="16" fill="#2B2929"/>
<circle cx="313" cy="418" r="16" fill="#2B2929"/>
<circle cx="376" cy="418" r="16" fill="#2B2929"/>
<circle cx="376" cy="418" r="16" fill="#2B2929"/>
<circle cx="439" cy="418" r="16" fill="#2B2929"/>
<circle cx="439" cy="418" r="16" fill="#2B2929"/>
<circle cx="16" cy="485" r="16" fill="#2B2929"/>
<circle cx="16" cy="485" r="16" fill="#2B2929"/>
<circle cx="70" cy="485" r="16" fill="#2B2929"/>
<circle cx="70" cy="485" r="16" fill="#2B2929"/>
<circle cx="124" cy="485" r="16" fill="#2B2929"/>
<circle cx="124" cy="485" r="16" fill="#2B2929"/>
<circle cx="187" cy="485" r="16" fill="#2B2929"/>
<circle cx="187" cy="485" r="16" fill="#2B2929"/>
<circle cx="250" cy="485" r="16" fill="#2B2929"/>
<circle cx="250" cy="485" r="16" fill="#2B2929"/>
<circle cx="313" cy="485" r="16" fill="#2B2929"/>
<circle cx="313" cy="485" r="16" fill="#2B2929"/>
<circle cx="376" cy="485" r="16" fill="#2B2929"/>
<circle cx="376" cy="485" r="16" fill="#2B2929"/>
<circle cx="439" cy="485" r="16" fill="#2B2929"/>
<circle cx="439" cy="485" r="16" fill="#2B2929"/>
<circle cx="16" cy="552" r="16" fill="#2B2929"/>
<circle cx="16" cy="552" r="16" fill="#2B2929"/>
<circle cx="70" cy="552" r="16" fill="#2B2929"/>
<circle cx="70" cy="552" r="16" fill="#2B2929"/>
<circle cx="124" cy="552" r="16" fill="#2B2929"/>
<circle cx="124" cy="552" r="16" fill="#2B2929"/>
<circle cx="187" cy="552" r="16" fill="#2B2929"/>
<circle cx="187" cy="552" r="16" fill="#2B2929"/>
<circle cx="250" cy="552" r="16" fill="#2B2929"/>
<circle cx="250" cy="552" r="16" fill="#2B2929"/>
<circle cx="313" cy="552" r="16" fill="#2B2929"/>
<circle cx="313" cy="552" r="16" fill="#2B2929"/>
<circle cx="376" cy="552" r="16" fill="#2B2929"/>
<circle cx="376" cy="552" r="16" fill="#2B2929"/>
<circle cx="439" cy="552" r="16" fill="#2B2929"/>
<circle cx="439" cy="552" r="16" fill="#2B2929"/>
</svg>
