<svg width="149" height="160" viewBox="0 0 149 160" fill="none" xmlns="http://www.w3.org/2000/svg">
<ellipse cx="8.69229" cy="7.94366" rx="8.61539" ry="7.94366" fill="#2B2929"/>
<ellipse cx="8.69229" cy="7.94366" rx="8.61539" ry="7.94366" fill="#2B2929"/>
<ellipse cx="37.7693" cy="7.94366" rx="8.61539" ry="7.94366" fill="#2B2929"/>
<ellipse cx="37.7693" cy="7.94366" rx="8.61539" ry="7.94366" fill="#2B2929"/>
<ellipse cx="71.6923" cy="7.94366" rx="8.61539" ry="7.94366" fill="#2B2929"/>
<ellipse cx="71.6923" cy="7.94366" rx="8.61539" ry="7.94366" fill="#2B2929"/>
<ellipse cx="105.615" cy="7.94366" rx="8.61539" ry="7.94366" fill="#2B2929"/>
<ellipse cx="105.615" cy="7.94366" rx="8.61539" ry="7.94366" fill="#2B2929"/>
<ellipse cx="139.538" cy="7.94366" rx="8.61539" ry="7.94366" fill="#2B2929"/>
<ellipse cx="8.61539" cy="43.9437" rx="8.61539" ry="7.94366" fill="#2B2929"/>
<ellipse cx="8.61539" cy="43.9437" rx="8.61539" ry="7.94366" fill="#2B2929"/>
<ellipse cx="37.6924" cy="43.9437" rx="8.61539" ry="7.94366" fill="#2B2929"/>
<ellipse cx="37.6924" cy="43.9437" rx="8.61539" ry="7.94366" fill="#2B2929"/>
<ellipse cx="71.6154" cy="43.9437" rx="8.61539" ry="7.94366" fill="#2B2929"/>
<ellipse cx="71.6154" cy="43.9437" rx="8.61539" ry="7.94366" fill="#2B2929"/>
<ellipse cx="105.538" cy="43.9437" rx="8.61539" ry="7.94366" fill="#2B2929"/>
<ellipse cx="105.538" cy="43.9437" rx="8.61539" ry="7.94366" fill="#2B2929"/>
<ellipse cx="139.462" cy="43.9437" rx="8.61539" ry="7.94366" fill="#2B2929"/>
<ellipse cx="8.61539" cy="79.9437" rx="8.61539" ry="7.94366" fill="#2B2929"/>
<ellipse cx="8.61539" cy="79.9437" rx="8.61539" ry="7.94366" fill="#2B2929"/>
<ellipse cx="37.6924" cy="79.9437" rx="8.61539" ry="7.94366" fill="#2B2929"/>
<ellipse cx="37.6924" cy="79.9437" rx="8.61539" ry="7.94366" fill="#2B2929"/>
<ellipse cx="71.6154" cy="79.9437" rx="8.61539" ry="7.94366" fill="#2B2929"/>
<ellipse cx="71.6154" cy="79.9437" rx="8.61539" ry="7.94366" fill="#2B2929"/>
<ellipse cx="105.538" cy="79.9437" rx="8.61539" ry="7.94366" fill="#2B2929"/>
<ellipse cx="105.538" cy="79.9437" rx="8.61539" ry="7.94366" fill="#2B2929"/>
<ellipse cx="139.462" cy="79.9437" rx="8.61539" ry="7.94366" fill="#2B2929"/>
<ellipse cx="8.61539" cy="115.944" rx="8.61539" ry="7.94366" fill="#2B2929"/>
<ellipse cx="8.61539" cy="115.944" rx="8.61539" ry="7.94366" fill="#2B2929"/>
<ellipse cx="37.6924" cy="115.944" rx="8.61539" ry="7.94366" fill="#2B2929"/>
<ellipse cx="37.6924" cy="115.944" rx="8.61539" ry="7.94366" fill="#2B2929"/>
<ellipse cx="71.6154" cy="115.944" rx="8.61539" ry="7.94366" fill="#2B2929"/>
<ellipse cx="71.6154" cy="115.944" rx="8.61539" ry="7.94366" fill="#2B2929"/>
<ellipse cx="105.538" cy="115.944" rx="8.61539" ry="7.94366" fill="#2B2929"/>
<ellipse cx="105.538" cy="115.944" rx="8.61539" ry="7.94366" fill="#2B2929"/>
<ellipse cx="139.462" cy="115.944" rx="8.61539" ry="7.94366" fill="#2B2929"/>
<ellipse cx="8.61539" cy="151.944" rx="8.61539" ry="7.94366" fill="#2B2929"/>
<ellipse cx="8.61539" cy="151.944" rx="8.61539" ry="7.94366" fill="#2B2929"/>
<ellipse cx="37.6924" cy="151.944" rx="8.61539" ry="7.94366" fill="#2B2929"/>
<ellipse cx="37.6924" cy="151.944" rx="8.61539" ry="7.94366" fill="#2B2929"/>
<ellipse cx="71.6154" cy="151.944" rx="8.61539" ry="7.94366" fill="#2B2929"/>
<ellipse cx="71.6154" cy="151.944" rx="8.61539" ry="7.94366" fill="#2B2929"/>
<ellipse cx="105.538" cy="151.944" rx="8.61539" ry="7.94366" fill="#2B2929"/>
<ellipse cx="105.538" cy="151.944" rx="8.61539" ry="7.94366" fill="#2B2929"/>
<ellipse cx="139.462" cy="151.944" rx="8.61539" ry="7.94366" fill="#2B2929"/>
</svg>
